# xmcd
#
# Track frame offsets: 
#        150
#        26297
#        56062
#        84065
#        101176
#        125552
#        149649
#        175805
#        204683
#        227427
#        252255
#        284212
#
# Disc length: 4104 seconds
#
# Revision: 0
# Processed by: cddbd v1.5.2PL0 Copyright (c) Steve Scherf et al.
# Submitted via: ExactAudioCopy v0.99pb5
#
DISCID=ae10060c
DTITLE=Söhne Mannheims - Söhne Mannheims  Wettsingen in Schwetzingen  
DTITLE=MTV Unplugged
DYEAR=1900
DGENRE=
TTITLE0=Babylon System
TTITLE1=Lieder drüber singen
TTITLE2=Das hat die Welt noch nicht gesehen
TTITLE3=Ich wollte wie Orpheus singen
TTITLE4=Volle Kraft voraus
TTITLE5=Wenn du schläfst
TTITLE6=Zurück zu dir
TTITLE7=Dein Leben
TTITLE8=Vielleicht
TTITLE9=Geh davon aus
TTITLE10=Was wird mich erwarten
TTITLE11=Und wenn ein Lied
EXTD=
EXTT0=
EXTT1=
EXTT2=
EXTT3=
EXTT4=
EXTT5=
EXTT6=
EXTT7=
EXTT8=
EXTT9=
EXTT10=
EXTT11=
PLAYORDER=
